# xmcd CD database file
#
# Track frame offsets:
#	150
#	31675
#	57766
#	84200
#	115143
#	142335
#	178782
#	198459
#	237730
#
# Disc length: 3380 seconds
#
# Revision: 0
# Processed by: cddbd v1.5.1PL2 Copyright (c) Steve Scherf et al.
# Submitted via: CDex 1.51
#
DISCID=7a0d3209
DTITLE=Matteo Negrin - Impressioni e paesaggi
DYEAR=2000
DGENRE=New Age
TTITLE0=La ragazza della porta accanto
TTITLE1=Neapolis
TTITLE2=Here we are
TTITLE3=Radio song
TTITLE4=Pollicino
TTITLE5=Impressioni e paesaggi
TTITLE6=My teeny nught
TTITLE7=Festa mobile
TTITLE8=Neapolis - alternative track
EXTD=YEAR: 2000
EXTT0=
EXTT1=
EXTT2=
EXTT3=
EXTT4=
EXTT5=
EXTT6=
EXTT7=
EXTT8=
PLAYORDER=
